<?xml version="1.0" encoding="utf-8"?>
<!-- Generator: Adobe Illustrator 27.8.1, SVG Export Plug-In . SVG Version: 6.00 Build 0)  -->
<svg version="1.1" id="Layer_1" xmlns="http://www.w3.org/2000/svg" xmlns:xlink="http://www.w3.org/1999/xlink" x="0px" y="0px"
	 viewBox="0 0 200 200" style="enable-background:new 0 0 200 200;" xml:space="preserve">
<style type="text/css">
	.st0{fill:#EF6464;}
</style>
<g>
	<g>
		<path class="st0" d="M94.29,179.91c-0.18,0.41-0.37,0.82-0.55,1.22c0.56,0,0.56,0,1.08,0c6.36-4.76,12.71-10.07,18.55-15.91
			c8.27-8.02,16.28-18.81,19.93-30.05c0.04-0.13,0.09-0.26,0.13-0.39c0.07-0.22,0.14-0.43,0.2-0.65c1.07-3.42,1.68-6.89,1.71-10.39
			c0-0.15,0.01-0.3,0.01-0.45c0-0.17-0.01-0.33-0.01-0.5c-0.07-7.69-2.88-15.18-9.77-21.73c0.69-0.34,1.31-0.7,1.88-1.08
			c-0.57,0.41-1.2,0.77-1.88,1.08c5.18-2.06,7.31-6.63,5.42-11.31c0.16,0.57,0.28,1.14,0.34,1.7l-32.97-22.1l4.87-11.31L52.17,38.41
			l-4.14-2.77c18.82,34.88,31.7,60.16,34.6,69.11c0,0,0.16,0.02,0.46,0.04l-0.46,1.08c7.16,0.5,14.27,0.99,21.42,0.56
			c2.49,5.68,4.01,11.83,4.52,17.98c1.01,18.78-5.83,36.61-13.21,53.13 M101.4,165.62c-1.94,4.79-3.82,8.71-5.16,11.33
			c-0.15,0.1-0.29,0.2-0.44,0.29C97.78,173.51,99.67,169.62,101.4,165.62z"/>
		<path class="st0" d="M129.83,84.78c-1.45-6.4-3.22-12.74-5.35-18.73c-3.57-10.3-7.44-20.5-11.53-30.63l-9.74,22.63l20.79,8
			C126.13,72.05,128.25,78.39,129.83,84.78z"/>
		<path class="st0" d="M130.98,89.76c-0.03-0.12-0.06-0.24-0.1-0.36c-0.31-1.54-0.67-3.08-1.05-4.61c0.35,1.54,0.69,3.07,1,4.61
			C130.89,89.52,130.93,89.64,130.98,89.76z"/>
	</g>
	<path class="st0" d="M49,37.42L49,37.42c-1.36-1.94-0.41-4.64,1.86-5.31L105.59,16c1.81-0.53,3.72,0.48,4.29,2.29l22.19,70.82
		c0.14,0.43,0.19,0.89,0.14,1.35l-0.29,3.22c-0.14,1.53-1.27,2.79-2.78,3.09l-43.98,8.72c-1.53,0.3-2.68,0.88-3.38-0.52l-32.53-67.1
		C49.19,37.71,49.1,37.56,49,37.42z"/>
</g>
</svg>
