<?xml version="1.0" encoding="utf-8"?>
<!-- Generator: Adobe Illustrator 27.8.1, SVG Export Plug-In . SVG Version: 6.00 Build 0)  -->
<svg version="1.1" id="Layer_1" xmlns="http://www.w3.org/2000/svg" xmlns:xlink="http://www.w3.org/1999/xlink" x="0px" y="0px"
	 viewBox="0 0 200 200" style="enable-background:new 0 0 200 200;" xml:space="preserve">
<circle cx="50.14" cy="68.18" r="5"/>
<circle cx="154.18" cy="156.53" r="5"/>
<circle cx="27.67" cy="173.53" r="5"/>
<circle cx="160.58" cy="96.97" r="5"/>
<circle cx="141.68" cy="50.15" r="5"/>
<circle cx="100.8" cy="73.18" r="5"/>
<circle cx="160.58" cy="23.12" r="5"/>
<circle cx="31.61" cy="118.51" r="5"/>
<circle cx="62.64" cy="98.07" r="7.5"/>
<circle cx="78.44" cy="126.61" r="7.5"/>
<circle cx="131.57" cy="84.47" r="7.5"/>
<circle cx="123.49" cy="129.61" r="7.5"/>
<circle cx="161.68" cy="68.18" r="7.5"/>
<circle cx="100.8" cy="43.34" r="7.5"/>
<circle cx="99.7" cy="99.82" r="15"/>
<circle cx="90.8" cy="155.38" r="10"/>
<circle cx="159.18" cy="122.41" r="10"/>
<circle cx="32.67" cy="50.84" r="10"/>
<circle cx="180.42" cy="141.61" r="2.5"/>
<circle cx="128.49" cy="176.03" r="2.5"/>
<circle cx="125.99" cy="31.47" r="2.5"/>
<circle cx="119.02" cy="66.75" r="2.5"/>
<circle cx="56.65" cy="81.97" r="2.5"/>
<circle cx="73.99" cy="58.34" r="2.5"/>
<circle cx="127.67" cy="109.82" r="2.5"/>
<circle cx="101.35" cy="124.91" r="2.5"/>
<circle cx="35.17" cy="89.47" r="2.5"/>
<circle cx="71.49" cy="40.84" r="2.5"/>
<circle cx="49.15" cy="137.41" r="2.5"/>
<circle cx="180.42" cy="86.01" r="2.5"/>
<circle cx="89.7" cy="27.3" r="5"/>
<circle cx="182.12" cy="109.82" r="5"/>
<circle cx="26.61" cy="76.97" r="5"/>
<circle cx="50.14" cy="153.81" r="5"/>
<circle cx="17.95" cy="160.26" r="2.5"/>
<circle cx="86.52" cy="176.03" r="2.5"/>
<circle cx="174.62" cy="171.03" r="2.5"/>
<circle cx="70.14" cy="20.43" r="2.5"/>
<circle cx="120.17" cy="168.53" r="5"/>
<circle cx="177.92" cy="54.33" r="5"/>
<circle cx="78.44" cy="109.82" r="1"/>
<circle cx="133.62" cy="68.18" r="1"/>
<circle cx="39.66" cy="98.74" r="1"/>
<circle cx="23.24" cy="142.13" r="1"/>
<circle cx="61.22" cy="121.1" r="1"/>
<circle cx="61.22" cy="161.46" r="1"/>
<circle cx="106.32" cy="161.46" r="1"/>
<circle cx="146.67" cy="178.07" r="1"/>
<circle cx="146.67" cy="140.09" r="1"/>
<circle cx="165.66" cy="109.24" r="1"/>
<circle cx="115.81" cy="42.77" r="1"/>
<circle cx="101.57" cy="21.41" r="1"/>
<circle cx="46.98" cy="40.4" r="1"/>
<circle cx="56.65" cy="45.15" r="5"/>
<circle cx="160.75" cy="45.52" r="1"/>
<circle cx="84.7" cy="69.18" r="7.5"/>
<circle cx="128.49" cy="150.32" r="5"/>
<circle cx="39.66" cy="20.41" r="2.5"/>
</svg>
