<?xml version="1.0" encoding="utf-8"?>
<!-- Generator: Adobe Illustrator 27.8.1, SVG Export Plug-In . SVG Version: 6.00 Build 0)  -->
<svg version="1.1" id="Layer_1" xmlns="http://www.w3.org/2000/svg" xmlns:xlink="http://www.w3.org/1999/xlink" x="0px" y="0px"
	 viewBox="0 0 200 200" style="enable-background:new 0 0 200 200;" xml:space="preserve">
<style type="text/css">
	.st0{fill:#8066E3;}
	.st1{fill:#EF6464;}
</style>
<g>
	<g>
		<path class="st0" d="M170.4,150.1c-10.2-43.7-9.1-111.7-9.1-115.3c0-0.1-0.1-0.2-0.1-0.2c-5.8-3.8-9.9,0.5-10.3,0.9
			c0,0,0,0-0.1,0.1c-5.4,16-57.2,34.4-60.3,35.5c-0.1,0-0.2,0.1-0.2,0.2c-0.2,1.2-1.6,9.4,3.1,13.9c0,0,0.1,0.1,0.1,0.1
			c0.5,1.7,12.6,41.5,7.8,62.4c-4.9,21.3-22.3,20.2-25.1,19.8c-2.9-0.4-3.7-7.8,1.8-12.2c4.7-3.8,6-9,6.3-10.4
			c0-0.2-0.1-0.4-0.3-0.3c-1.9,0.3-11,1.8-15.4,7.6c-5,6.6-7.2,12.1-1.8,18.7c5.4,6.5,21.2,4.9,21.5,4.8c0,0,0,0,0,0
			c38.3-6.8,17.4-87.9,15.9-93.7c-0.1-0.2,0.1-0.3,0.2-0.3c8.8-0.5,36.8-11.6,40.4-13c0.2-0.1,0.4,0.1,0.4,0.2
			c0,4.9,0.3,53.6,4.9,68.3c-0.1,0-0.2,0-0.3,0c-12.1,0-21.9,8.6-21.9,19.3s9.8,19.3,21.9,19.3s21.9-8.6,21.9-19.3
			C171.5,154.1,171.1,152,170.4,150.1C170.4,150.1,170.4,150.1,170.4,150.1z"/>
		<path class="st0" d="M170.3,150.1c-7-31.5-8.6-63.9-9.3-96c0-6.2-0.4-13.7-0.1-19.2l-0.2-0.1l-0.5-0.3c-2.8-1.7-6.6-1.1-8.9,1.3
			c0,0.1,0.1-0.2,0.1-0.1l-0.1,0.3c-2.2,5.4-7.1,9.1-11.6,12.5c-14.9,10.1-31.7,17.1-48.4,23.5L90.8,72c0,0,0.2-0.1,0.3-0.2
			c0.1-0.1,0.2-0.3,0.2-0.4c-0.7,4.3-0.4,9.6,2.8,12.7c0.1,0.1,0-0.1,0.2,0.3c0.3,0.5,0.3,0.7,0.5,1.2c3.4,11.7,6.2,23.5,7.9,35.5
			c1,8,1.7,16.4,0.4,24.5c-0.8,5-2.5,9.9-5.5,14c-2,2.8-4.7,5.1-7.8,6.8c-4.3,2.2-9.1,3.1-13.9,2.6c-1.9-0.2-3.3-2.3-3.6-3.9
			c-0.8-3.8,0.7-7.7,3.3-10.4l1-0.9c2.9-2.4,4.9-5.8,5.7-9.4c0,0,0-0.2,0,0c0,0.2,0,0.5,0.1,0.8c0.2,0.5,0.8,0.9,1.3,0.9
			c0.4,0,0.1,0,0.1,0c-5,0.8-10.6,2.7-13.9,6.7c-4.8,5.8-7.5,11.9-1.2,17.7c3.9,2.9,9,3.3,13.9,3.5c1.7,0,3.4,0,5.1-0.2
			c0.9-0.2,2.7-0.6,3.8-1c27.3-10.1,16.8-67.3,11.6-89.5l-0.3-1.2c0-0.1,0,0-0.1-0.3c-0.2-0.8,0.6-1.7,1.4-1.7l0.6-0.1
			c4.7-0.5,9.2-2,13.8-3.4c8.3-2.6,16.8-5.7,25-8.9l0.6-0.2l0.1-0.1c0.1,0,0,0,0.2-0.1c0.4-0.1,0.9,0,1.2,0.3
			c0.3,0.3,0.3,0.9,0.3,0.9c0,0.1,0,0.8,0,0.9l0.1,9.7c0.3,16.9,0.6,33.8,2.9,50.5c0.3,2.3,0.9,4.8,1.5,7c0.1,0.2-0.1,0.5-0.3,0.5
			c-8.4-0.2-17.4,4.4-20.6,12.4c-2.6,5.9-1.2,13.1,3,17.9c9.8,11.8,31.7,9.6,37.7-5C171.7,158.7,171.8,154.1,170.3,150.1
			L170.3,150.1z M170.5,150c6.5,19.6-17.8,32-33.4,22c-7.6-4.4-11.7-14.3-8.1-22.5c3.3-8.2,12.3-12.9,20.9-12.8l-0.1,0.2
			c-0.4-1.6-0.9-3.1-1.1-4.7c-0.9-4.7-1.4-9.6-1.9-14.4c-1.4-15.9-1.8-32.2-2-48.2V69c0-0.2,0.1-0.6-0.2-0.5
			c-0.1,0.1-0.7,0.3-0.8,0.3c-8.2,3.2-16.6,6.4-25,9.1c-4.2,1.3-8.5,2.7-12.8,3.4l-1.2,0.1l-0.6,0.1c-0.1,0.1-0.1,0.1-0.1,0.3
			c5.6,22.9,11.8,57.8,1.8,79.7c-3.4,7.4-10.2,13.3-18.4,14.2c-6.4,0.3-13.3,0.3-18.9-3.1c-1.3-0.9-2.5-2.1-3.4-3.5
			c-4.4-6-0.9-12.8,3.2-17.7c3.8-4.5,9.7-6.5,15.3-7.4c0.3,0,0.5,0.3,0.4,0.5l0,0.2l-0.1,0.3c-0.9,3.6-2.7,6.9-5.4,9.4
			c-0.9,0.8-1.8,1.6-2.6,2.5c-2,2.6-3.4,7-1,9.8c0.5,0.5,1.4,0.5,2.2,0.6c4,0.2,8-0.6,11.6-2.4c4.3-2.2,7.6-6,9.7-10.3
			c4.7-10.4,3.8-22.1,2.5-33.2c-1.4-11.2-3.9-22.2-6.9-33l-0.7-2.3l-0.2-0.6c0-0.1-0.1-0.2-0.1-0.2c-3.6-3.7-3.9-9.2-3.1-14
			c0.1-0.3,0.4-0.3,0.6-0.4c16.7-6.2,33.5-13,48.4-23c4.5-3.2,9.3-6.8,11.4-12l0.1-0.3c0,0,0.1-0.1,0.1-0.2c0.5-0.5,1-0.9,1.5-1.3
			c2.7-1.8,6.7-1.7,9.1,0.7c-0.2,12.9,0,25.8,0.5,38.6C163,99.1,164.8,124.9,170.5,150L170.5,150z"/>
	</g>
	<g>
		<path class="st1" d="M91.1,126.3L91.1,126.3c0.8-0.4,1.2-0.9,1.1-1.8c-4-21.3-52.7-101.9-52.7-101.9c-4.8-3-11,0.4-11,6.1v0.9
			c0,0,51.7,88.8,54.5,97.4c0,0,2,0.2,4.2,0.1c2.9,5.8-2,14.2-2,14.2S97.5,132.9,91.1,126.3z"/>
		<path class="st1" d="M91.1,126.3c0.9-0.4,1.3-1.3,1-2.2c-0.3-1.5-0.8-3-1.3-4.4c-2.4-6.9-5.6-13.5-8.8-20.1
			C68.9,73.4,54.2,48,39.1,22.9c-2.8-1.6-7.6-1.1-9.5,3C29.1,27,29,28.2,29,29.6l-0.1-0.2c15.9,27.5,32.9,57.1,48.1,85
			c2.2,4.1,4.4,8.2,6.2,12.5l-0.2-0.2c1.4,0.1,2.8,0.2,4.1,0.1c0.1,0,0.2,0.1,0.2,0.1c2.1,4.7,0.2,10.1-2.1,14.3l-0.2-0.2
			C89.6,138.1,96.1,131.6,91.1,126.3L91.1,126.3z M91.1,126.3c3.9,3.7,0.9,9-2.3,12.1c-1.1,1.1-2.3,2.1-3.5,3c-0.1,0-0.1,0-0.2,0
			c1.5-3.3,3-6.9,2.8-10.7c-0.1-1.2-0.4-2.4-0.9-3.5l0.2,0.1c-1.4,0.1-2.8,0-4.2-0.1c-4.1-8.3-8.7-16.7-13.2-24.8
			C61.9,88.3,50.3,68.2,42.1,54l-14-24.1c-0.2-0.7,0-1.5,0-2.3c0.7-5.2,7.5-8.3,11.7-5.1c14.9,25.2,29.7,50.6,42.5,77
			c3.1,6.6,6.2,13.3,8.6,20.2c0.5,1.4,0.9,2.9,1.2,4.4C92.5,125,92.1,125.9,91.1,126.3L91.1,126.3z"/>
	</g>
</g>
</svg>
